<svg width="20" height="20" viewBox="0 0 20 20" fill="none" xmlns="http://www.w3.org/2000/svg">
<path d="M17.6172 1.17188H14.1016V0H12.9297V1.17188H9.41406V0H8.24219V1.17188H4.72656V0H3.55469V1.17188H0V4.72656H17.6172V1.17188Z" fill="black"/>
<path d="M12.9297 16.4453C12.9297 18.387 14.5037 20 16.4453 20C18.387 20 20 18.387 20 16.4453C20 14.5037 18.387 12.9297 16.4453 12.9297C14.5037 12.9297 12.9297 14.5037 12.9297 16.4453ZM18.2031 15.8594V17.0312H15.8594V14.6875H17.0312V15.8594H18.2031Z" fill="black"/>
<path d="M3.55469 8.82812H4.72656V10H3.55469V8.82812Z" fill="black"/>
<path d="M8.24219 8.82812H9.41406V10H8.24219V8.82812Z" fill="black"/>
<path d="M3.55469 13.5156H4.72656V14.6875H3.55469V13.5156Z" fill="black"/>
<path d="M11.7578 16.4453C11.7578 13.8607 13.8607 11.7578 16.4453 11.7578C16.8523 11.7578 17.2404 11.8263 17.6172 11.9243V5.89844H0V17.6172H11.9243C11.8263 17.2404 11.7578 16.8523 11.7578 16.4453ZM11.7578 7.65625H15.2734V11.1719H11.7578V7.65625ZM5.89844 15.8594H2.38281V12.3438H5.89844V15.8594ZM5.89844 11.1719H2.38281V7.65625H5.89844V11.1719ZM10.5859 15.8594H7.07031V12.3438H10.5859V15.8594ZM10.5859 11.1719H7.07031V7.65625H10.5859V11.1719Z" fill="black"/>
<path d="M12.9297 8.82812H14.1016V10H12.9297V8.82812Z" fill="black"/>
<path d="M8.24219 13.5156H9.41406V14.6875H8.24219V13.5156Z" fill="black"/>
</svg>
